HIERARCHY
ROOT Hips
{
	OFFSET -0.001795 -0.223333 0.028219
	CHANNELS 6 Xposition Yposition Zposition Zrotation Yrotation Xrotation
	JOINT LeftUpLeg
	{
		OFFSET 0.069520 -0.091406 -0.006815
		CHANNELS 3 Zrotation Yrotation Xrotation
		JOINT LeftLeg
		{
			OFFSET 0.034277 -0.375199 -0.004496
			CHANNELS 3 Zrotation Yrotation Xrotation
			JOINT LeftFoot
			{
				OFFSET -0.013596 -0.397961 -0.043693
				CHANNELS 3 Zrotation Yrotation Xrotation
				JOINT LeftToe
				{
					OFFSET 0.026358 -0.055791 0.119288
					CHANNELS 3 Zrotation Yrotation Xrotation
					End Site
					{
						OFFSET 0.000000 0.000000 0.000000
					}
				}
			}
		}
	}
	JOINT RightUpLeg
	{
		OFFSET -0.067670 -0.090522 -0.004320
		CHANNELS 3 Zrotation Yrotation Xrotation
		JOINT RightLeg
		{
			OFFSET -0.038290 -0.382569 -0.008850
			CHANNELS 3 Zrotation Yrotation Xrotation
			JOINT RightFoot
			{
				OFFSET 0.015774 -0.398415 -0.042312
				CHANNELS 3 Zrotation Yrotation Xrotation
				JOINT RightToe
				{
					OFFSET -0.025372 -0.048144 0.123348
					CHANNELS 3 Zrotation Yrotation Xrotation
					End Site
					{
						OFFSET 0.000000 0.000000 0.000000
					}
				}
			}
		}
	}
	JOINT Spine
	{
		OFFSET -0.002533 0.108963 -0.026696
		CHANNELS 3 Zrotation Yrotation Xrotation
		JOINT Spine1
		{
			OFFSET 0.005487 0.135180 0.001092
			CHANNELS 3 Zrotation Yrotation Xrotation
			JOINT Spine2
			{
				OFFSET 0.001457 0.052922 0.025425
				CHANNELS 3 Zrotation Yrotation Xrotation
				JOINT Neck
				{
					OFFSET -0.002778 0.213870 -0.042857
					CHANNELS 3 Zrotation Yrotation Xrotation
					JOINT Head
					{
						OFFSET 0.005152 0.064970 0.051349
						CHANNELS 3 Zrotation Yrotation Xrotation
						End Site
						{
							OFFSET 0.000000 0.000000 0.000000
						}
					}
				}
				JOINT LeftShoulder
				{
					OFFSET 0.078845 0.121749 -0.034090
					CHANNELS 3 Zrotation Yrotation Xrotation
					JOINT LeftArm
					{
						OFFSET 0.090977 0.030469 -0.008868
						CHANNELS 3 Zrotation Yrotation Xrotation
						JOINT LeftForeArm
						{
							OFFSET 0.259612 -0.012772 -0.027456
							CHANNELS 3 Zrotation Yrotation Xrotation
							JOINT LeftHand
							{
								OFFSET 0.249234 0.008986 -0.001171
								CHANNELS 3 Zrotation Yrotation Xrotation
								End Site
								{
									OFFSET 0.000000 0.000000 0.000000
								}
							}
						}
					}
				}
				JOINT RightShoulder
				{
					OFFSET -0.081759 0.118833 -0.038615
					CHANNELS 3 Zrotation Yrotation Xrotation
					JOINT RightArm
					{
						OFFSET -0.096012 0.032551 -0.009143
						CHANNELS 3 Zrotation Yrotation Xrotation
						JOINT RightForeArm
						{
							OFFSET -0.253742 -0.013329 -0.021401
							CHANNELS 3 Zrotation Yrotation Xrotation
							JOINT RightHand
							{
								OFFSET -0.255298 0.007772 -0.005559
								CHANNELS 3 Zrotation Yrotation Xrotation
								End Site
								{
									OFFSET 0.000000 0.000000 0.000000
								}
							}
						}
					}
				}
			}
		}
	}
}
MOTION
Frames: 7
Frame Time: 0.050000
0.000000 0.966063 0.000000 -3.858657 23.685981 -2.022102 3.823660 -0.145781 7.072306 -8.043184 -0.016638 -6.826778 2.680153 12.047179 15.603223 0.000000 0.000000 0.000000 -2.396366 0.240795 -4.240043 4.846679 -2.006318 17.369403 -3.827033 -9.423789 19.524919 0.000000 0.000000 0.000000 -2.032272 -0.407247 9.942836 2.524020 0.512822 -25.414212 -2.377662 -7.997008 27.979188 1.773134 0.918807 -18.614995 0.000000 0.000000 0.000000 -30.137036 -0.415944 -5.026494 -43.354910 0.620411 -6.542922 -21.016181 -38.862668 8.763095 0.000000 0.000000 0.000000 22.868418 -0.316763 1.124137 55.262174 -1.353300 -9.098483 8.401793 37.666459 5.613294 0.000000 0.000000 0.000000
0.000732 0.965091 -0.001852 -4.176744 24.039475 -1.968717 3.302935 -0.092617 7.286312 -6.717530 -0.064290 -8.024639 2.699579 12.200776 15.866659 0.000000 0.000000 0.000000 -3.036744 0.343583 -7.190216 5.752172 -3.017979 22.100297 -3.233134 -8.491234 20.193536 0.000000 0.000000 0.000000 -2.112014 -0.395622 9.830593 2.194829 0.566149 -27.447430 -3.016333 -8.871311 30.232034 2.194494 0.537177 -18.543519 0.000000 0.000000 0.000000 -28.810809 0.952131 -5.410110 -44.795355 -0.259158 -6.775084 -23.341426 -40.702992 10.221265 0.000000 0.000000 0.000000 23.997001 -0.903714 0.848213 54.326486 -2.181059 -9.643521 8.315968 39.030820 5.927514 0.000000 0.000000 0.000000
0.001240 0.965487 -0.003182 -4.160385 23.779695 -1.755213 3.653672 -0.130670 6.672180 -7.127297 -0.044836 -7.504103 2.138206 11.591384 16.242122 0.000000 0.000000 0.000000 -3.854535 0.318280 -9.011954 6.607016 -3.772127 24.780884 -3.182992 -8.544803 19.783413 0.000000 0.000000 0.000000 -1.718552 -0.369435 9.076665 2.576177 0.519526 -25.870926 -4.070387 -9.141556 29.771586 2.556128 0.051638 -17.266558 0.000000 0.000000 0.000000 -28.381246 0.193244 -4.645875 -44.600393 -0.505626 -6.679493 -22.626785 -41.088587 10.089414 0.000000 0.000000 0.000000 25.279042 -0.585857 0.883695 52.970407 -2.481303 -9.544622 7.987596 39.422609 5.768342 0.000000 0.000000 0.000000
0.001748 0.966023 -0.003927 -4.434218 23.613425 -2.017356 3.503297 -0.109874 7.075909 -7.460294 -0.070455 -7.748313 3.919649 13.653933 15.710866 0.000000 0.000000 0.000000 -3.759116 0.368274 -10.413434 6.631548 -4.498522 28.769346 -3.003054 -8.299356 17.855929 0.000000 0.000000 0.000000 -2.012532 -0.377115 9.502844 3.287718 0.345183 -26.918798 -4.726203 -9.766566 30.954687 3.173564 -0.663858 -16.338074 0.000000 0.000000 0.000000 -29.552759 0.456665 -4.708106 -43.371054 -0.493090 -6.626771 -24.117587 -41.203505 10.816115 0.000000 0.000000 0.000000 24.950607 -0.195049 0.937545 52.039818 -3.268570 -9.783479 8.433352 40.411342 6.035966 0.000000 0.000000 0.000000
0.001886 0.966483 -0.004526 -4.597741 23.063954 -2.218378 3.861701 -0.142914 6.981383 -8.212917 -0.080466 -7.682019 4.938043 15.125893 16.706220 0.000000 0.000000 0.000000 -3.846183 0.386022 -11.418015 6.880925 -5.225232 32.214562 -3.715847 -9.704731 17.085549 0.000000 0.000000 0.000000 -1.635870 -0.472045 10.475758 3.767189 0.229807 -26.619283 -5.279161 -10.082663 30.149385 3.579647 -1.215755 -15.280955 0.000000 0.000000 0.000000 -29.742645 0.177292 -4.252461 -43.004988 -0.503483 -6.577026 -24.772223 -41.767988 11.313401 0.000000 0.000000 0.000000 24.577261 -0.604244 0.332796 51.517136 -4.199674 -9.879750 9.961273 40.573764 6.487410 0.000000 0.000000 0.000000
0.001728 0.967178 -0.005291 -5.086022 21.612160 -2.664787 4.286029 -0.163766 7.167700 -8.301756 -0.053074 -7.910197 6.069281 16.741420 18.363802 0.000000 0.000000 0.000000 -3.376414 0.513340 -12.672220 6.872065 -5.996627 37.127195 -4.580658 -11.557580 16.714975 0.000000 0.000000 0.000000 -1.477745 -0.538534 11.281420 4.253374 0.091461 -27.547387 -5.385168 -10.524906 31.302942 4.325715 -2.038738 -15.233483 0.000000 0.000000 0.000000 -30.479333 -0.078029 -3.539887 -42.370839 -1.213272 -6.515494 -25.602401 -42.144239 11.978505 0.000000 0.000000 0.000000 24.196241 -0.438563 0.003647 50.574594 -5.188650 -10.110855 10.744352 40.526587 6.594679 0.000000 0.000000 0.000000
0.001060 0.967470 -0.006475 -5.427264 20.481347 -2.808247 4.590435 -0.174618 6.986411 -8.595198 -0.017645 -7.772449 7.387815 18.343693 19.167031 0.000000 0.000000 0.000000 -3.118415 0.613406 -14.309300 7.083622 -6.981733 42.166445 -5.017835 -12.606007 16.070309 0.000000 0.000000 0.000000 -1.163341 -0.630230 12.185596 5.142772 -0.131489 -26.981731 -6.097060 -11.360155 30.699570 4.818017 -2.698165 -14.988989 0.000000 0.000000 0.000000 -31.233247 -0.684595 -2.519502 -41.654572 -1.617628 -6.422704 -25.765052 -43.545213 12.681462 0.000000 0.000000 0.000000 23.621521 -0.042624 -0.352518 49.661247 -6.522675 -10.222153 11.314611 40.545289 6.529924 0.000000 0.000000 0.000000
